<?xml version="1.0" encoding="utf-8"?>
<!-- Generator: Adobe Illustrator 24.1.2, SVG Export Plug-In . SVG Version: 6.00 Build 0)  -->
<svg version="1.1" id="Layer_1" xmlns="http://www.w3.org/2000/svg" xmlns:xlink="http://www.w3.org/1999/xlink" x="0px" y="0px"
	 viewBox="0 0 860.4 608.8" style="enable-background:new 0 0 860.4 608.8;" xml:space="preserve">
<style type="text/css">
	.st0{fill:#F2F2F2;}
	.st1{fill:#3F3D56;}
	.st2{fill:#FFFFFF;}
	.st3{opacity:0.2;enable-background:new    ;}
	.st4{fill:#3F3D56;stroke:#3F3D56;stroke-width:3;stroke-miterlimit:10;}
	.st5{fill:#FFB6B6;}
	.st6{fill:#2F2E41;}
	.st7{fill:#253951;}
	.st8{fill:#E6E6E6;}
	.st9{fill:#CACACA;}
	.st10{fill:none;stroke:#3F3D56;stroke-width:4;stroke-miterlimit:10;}
</style>
<path class="st0" d="M790.2,556.3l18.4-29.2c18.1,0.5,35.9,5.4,51.7,14.3c-31.8,5.4-48.6,41.1-76.9,56.6c-18,9.6-39.3,10.6-58.1,2.6
	l-24.5,0.8c11-31,35-55.6,65.7-67.4c8.5-3.2,17.4-5.3,26.5-6.2C790.9,541.6,790.2,556.3,790.2,556.3z"/>
<path class="st1" d="M775.2,144.4L775.2,144.4V52.9c0-29.2-23.7-52.9-52.9-52.9l0,0H528.5c-29.2,0-52.9,23.7-52.9,52.9c0,0,0,0,0,0
	v501.7c0,29.2,23.7,52.9,52.9,52.9l0,0h193.7c29.2,0,52.9-23.7,52.9-52.9V209.5l0,0c1.8,0,3.3-1.5,3.3-3.3c0,0,0,0,0,0v-58.4
	C778.5,145.9,777,144.4,775.2,144.4z"/>
<path class="st2" d="M763.9,53.3v501c0,21.7-17.4,39.3-39.1,39.5c-0.1,0-0.3,0-0.4,0H529.7c-21.8,0-39.5-17.7-39.5-39.5v-501
	c0-21.8,17.7-39.5,39.5-39.5h23.6c-3.9,9.6,0.7,20.6,10.3,24.5c2.2,0.9,4.6,1.4,7.1,1.4h111c10.4,0,18.8-8.5,18.8-18.9
	c0-2.4-0.5-4.8-1.4-7h25.3C746.2,13.8,763.9,31.5,763.9,53.3z"/>
<path class="st1" d="M721.1,581.5c0,5.2-0.2,10.3-0.5,15.4c-0.1,0-0.3,0-0.4,0H525.5c-18.1,0-33.9-12.3-38.3-29.9
	c-0.4-1.5-0.7-3-0.8-4.5c-0.2-1.7-0.3-3.4-0.3-5.1V334.2c15,0.7,29.9,2.8,44.5,6.3c1.4,0.3,2.8,0.7,4.3,1c0.1,0,0.2,0,0.3,0.1
	c1.4,0.4,2.8,0.7,4.3,1.1c30.1,8.3,58.3,22.2,83.3,41c1.4,1.1,2.8,2.2,4.3,3.3l0.3,0.2c2.4,1.9,4.7,3.8,7,5.7c0.5,0.4,1,0.9,1.5,1.3
	c1.2,1.1,2.5,2.1,3.7,3.2c26.6,23.9,47.6,53.3,61.8,86.1c0.5,1.1,0.9,2.2,1.4,3.2c0.2,0.4,0.4,0.9,0.5,1.3c0.2,0.4,0.3,0.8,0.5,1.2
	C715.1,518.6,721.1,549.9,721.1,581.5z"/>
<path class="st1" d="M476.7,195.5c-2.5,0-4.5-2-4.5-4.5v-30.6c0-2.5,2-4.5,4.5-4.5c2.5,0,4.5,2,4.5,4.5l0,0V191
	C481.2,193.5,479.1,195.5,476.7,195.5z"/>
<path class="st1" d="M475.8,136.1c-2.5,0-4.5-2-4.5-4.5v-30.6c0-2.5,2-4.5,4.5-4.5c2.5,0,4.5,2,4.5,4.5l0,0v30.6
	C480.3,134,478.2,136.1,475.8,136.1z"/>
<path class="st2" d="M595.6,18.9c0-2.5,2-4.5,4.5-4.5h30.6c2.5,0,4.5,2,4.5,4.5c0,2.5-2,4.5-4.5,4.5c0,0,0,0,0,0h-30.6
	C597.6,23.4,595.6,21.4,595.6,18.9z"/>
<path class="st1" d="M476.7,247.8c-2.5,0-4.5-2-4.5-4.5v-30.6c0-2.5,2-4.5,4.5-4.5c2.5,0,4.5,2,4.5,4.5v30.6
	C481.2,245.8,479.1,247.8,476.7,247.8z"/>
<circle class="st2" cx="647.9" cy="18.9" r="4.5"/>
<path class="st3" d="M631.2,559.3c0-39.3,31.9-71.2,71.2-71.2c0,0,0,0,0,0h0.4c-0.2-0.4-0.4-0.9-0.5-1.3c-0.4-1.1-0.9-2.2-1.4-3.2
	h-69.7v-89.3h4.2c-0.5-0.5-1-0.9-1.5-1.3c-2.3-2-4.6-3.9-7-5.7l-0.3-0.2v2.7h-87.5v-47c-1.4-0.4-2.8-0.8-4.3-1.1
	c-0.1,0-0.2,0-0.3-0.1v48.2h-44.5v4.5h44.5v89.3h-44.5v4.5h44.5v71.2h-44.1c0.2,1.5,0.5,3,0.8,4.5h43.3v29.9h4.5v-29.9h87.5v29.9
	h4.5v-29.9h76.3v-4.5L631.2,559.3z M626.7,559.3h-87.5v-71.2h87.5V559.3z M626.7,483.6h-87.5v-1.8c0-48.3,39.2-87.5,87.5-87.5V483.6
	z"/>
<rect x="298.3" y="546.2" transform="matrix(0.9793 -0.2026 0.2026 0.9793 -103.6316 82.0166)" class="st4" width="101.1" height="2"/>
<rect x="281.1" y="486.2" transform="matrix(0.9793 -0.2026 0.2026 0.9793 -91.8161 77.2933)" class="st4" width="101.1" height="2"/>
<rect x="264.8" y="425.4" transform="matrix(0.9818 -0.19 0.19 0.9818 -75.2743 67.5892)" class="st4" width="100.1" height="2"/>
<rect x="249.7" y="365.3" transform="matrix(0.981 -0.1939 0.1939 0.981 -65.3387 64.8648)" class="st4" width="98" height="2"/>
<polygon class="st5" points="339.3,315.3 320.1,362 382.7,361.6 376.4,315.1 "/>
<polygon class="st5" points="354.6,529.9 363.9,531.2 373.6,496.1 359.9,494.1 "/>
<path class="st6" d="M353,525l14.8,1.3l-0.9,6.3l12.6,11.7c1.6,1.5,1.7,4,0.2,5.6c-0.9,1-2.2,1.4-3.5,1.2l-17.5-2.5l-2.1-6.7
	l-2.1,6.1l-6.6-1L353,525z"/>
<polygon class="st5" points="247.3,503.9 254.7,509.7 280.5,483.8 269.5,475.3 "/>
<path class="st6" d="M248.3,498.8l12.3,8.4l-3.9,5l5.2,16.4c0.7,2.1-0.5,4.3-2.6,5c-1.2,0.4-2.6,0.1-3.6-0.7l-13.9-10.8l1.5-6.8
	l-4.8,4.2l-5.3-4.1L248.3,498.8z"/>
<path class="st6" d="M323.7,350.9l-6.2,8.2l-16.4,71.4l-37.3,50.4l12.5,12l47.6-46.2l23.4-49.3l11.8,45.6l-3,61l20-1
	c5.4-70.8,13.9-143.6,3.9-164.1l0,0c-13.3,11.6-30.8,17.2-48.4,15.5L323.7,350.9z"/>
<path class="st7" d="M356.7,239.6l15.8,17.3c3.5,3.8,5.7,8.6,6.3,13.7l0,0c0.3,2.3,0.2,4.7-0.1,7l-3.4,24.9l6,38c0,0-8.6,5.2-25,16
	c-6.7,4.4-38,4.3-38,3c0.2-6.2,5.7-22.8,7-43c1.6-25-0.5-54.8,5-69C336.9,230.1,356.7,239.6,356.7,239.6z"/>
<path class="st5" d="M302.5,350.2c2.6-3.8,1.6-9-2.1-11.6c-0.4-0.3-0.8-0.5-1.3-0.7l0.6-19l-11.4-3.2l-0.5,26.8
	c-1.6,4.3,0.6,9.1,4.9,10.8C296.3,354.7,300.4,353.4,302.5,350.2L302.5,350.2z"/>
<path class="st7" d="M287.3,273.6c0.7-1.8,2.1-3.2,3.9-3.9c6.1-2.6,32.4-24.1,33.4-23.7l8.4-4.1c0.3,0,8.5,0.2,12.6,4.8
	c1.7,2,2.5,4.6,2.1,7.1c-1.2,10.9-38.5,35.4-42.5,35.3l-4.2,31l1.6,11.8l-15.3,0.4l-4.7-17.4C281.9,313.6,281,289.5,287.3,273.6z"/>
<ellipse transform="matrix(0.1444 -0.9895 0.9895 0.1444 34.7001 550.3958)" class="st7" cx="335.6" cy="255.1" rx="15.5" ry="13"/>
<polygon class="st4" points="233.7,312.4 233.3,310.4 326.2,289.4 326.2,291.4 "/>
<path class="st8" d="M609.2,171.1h35.6c7.7,0,13.9,6.2,13.9,13.9v0c0,7.7-6.2,13.9-13.9,13.9h-35.6c-7.7,0-13.9-6.2-13.9-13.9v0
	C595.3,177.3,601.6,171.1,609.2,171.1z"/>
<path class="st8" d="M543.2,226.7h167.8c7.7,0,13.9,6.2,13.9,13.9v0c0,7.7-6.2,13.9-13.9,13.9H543.2c-7.7,0-13.9-6.2-13.9-13.9v0
	C529.2,233,535.5,226.7,543.2,226.7z"/>
<path class="st7" d="M471.2,268.4h167.8c7.7,0,13.9,6.2,13.9,13.9v0c0,7.7-6.2,13.9-13.9,13.9H471.2c-7.7,0-13.9-6.2-13.9-13.9v0
	C457.2,274.6,463.5,268.4,471.2,268.4z"/>
<path class="st9" d="M860.1,607.3c0,0.7-0.5,1.2-1.2,1.2c0,0,0,0,0,0l-592.7,0.2l-2.1,0l-122.3,0h-2l-104.1,0h-2l-32.5,0
	c-0.7,0-1.2-0.5-1.2-1.2s0.5-1.2,1.2-1.2l32.8,0h2l104.1,0h2l121.4,0h2.1l103.4,0h1.4l488.6-0.2
	C859.6,606.1,860.1,606.7,860.1,607.3C860.1,607.3,860.1,607.3,860.1,607.3z"/>
<path class="st5" d="M373.4,222.4c-7.3,9.6-21,11.6-30.6,4.3c-9.6-7.3-11.6-21-4.3-30.6c7.3-9.6,21-11.6,30.6-4.3
	c4,3,6.9,7.4,8.1,12.3c0.1,0.3,0.1,0.5,0.2,0.8C378.6,211.1,377.1,217.4,373.4,222.4z"/>
<path class="st6" d="M379,205.2c-0.6-2.7-0.3-1.3-0.9-4.1c0.1,1.3-0.2,2.6-0.8,3.8l-25.7-3.8l2.2-15c8-1.9,15.7-3.4,19.4,2.8
	c8.3,1.2,14,8.9,12.8,17.1L379,205.2z"/>
<path class="st6" d="M363.9,245.5c0-0.3,0-0.6,0-0.9c0-2.1-0.3-4.2-0.8-6.2c-0.4-2.2-0.9-4.4-1.3-6.6c0.4,3.9-0.5,7.9-2.5,11.3
	c-3.9-4-1.3-9.8-7-10.7c-13.7-2-24.8-16.6-22.8-30.3c2-13.7,9.3-23,23-21c13.7,2,23.8,9.9,22.1,23.6
	C357.2,206.2,367.2,244.5,363.9,245.5z"/>
<circle class="st6" cx="333.8" cy="184.5" r="9.1"/>
<path class="st6" d="M344.6,176.9c-1.7-3.7-5.2-6.4-9.3-7c4.8,2.1,6.9,7.7,4.7,12.5c-0.5,1.1-1.2,2.1-2.1,3l1.8-1.6
	c1,0.9,2.5,1,3.7,0.3c1.1-0.7,1.8-2,1.9-3.3C345.5,179.4,345.2,178.1,344.6,176.9z"/>
<path class="st5" d="M460.7,273.4c-4.1-2.1-9.1-0.4-11.2,3.7c-0.2,0.4-0.4,0.9-0.5,1.4l-18.9,1.9l-1.6,11.8l26.7-3.1
	c4.5,1,9-1.8,10-6.3C466,279,464.2,275.1,460.7,273.4L460.7,273.4z"/>
<path class="st7" d="M386.8,298.7c-1.9-0.4-3.5-1.6-4.4-3.3c-3.3-5.7-28.2-28.9-27.9-30l-5.2-7.7c0-0.3-0.9-8.5,3.1-13.1
	c1.7-1.9,4.2-3,6.8-3c11-0.3,38.6,34.4,38.9,38.4l32.9-0.9l11.5-3.2l2.5,15.1l-16.6,7C427.2,298.8,403.4,302.8,386.8,298.7z"/>
<path class="st10" d="M187.8,608.8L239,222c5-37.6,57.8-41.5,68.3-5.1L419,606.1"/>
<path class="st10" d="M84.6,608.8L135.9,222c5-37.6,57.8-41.5,68.3-5.1l111.7,389.2"/>
</svg>
