<svg xmlns="http://www.w3.org/2000/svg" viewBox="0 0 499.4 391.35"><defs><style>.cls-1{fill:#253951;}</style></defs><g id="Layer_2" data-name="Layer 2"><g id="Layer_1-2" data-name="Layer 1"><path class="cls-1" d="M243.3,6.55c-1.8,4-32.4,70.9-67.8,148.5L111,296.35H96.8c-7.9,0-14.3-.3-14.3-.6s30.8-64.1,68.5-141.7,68.5-141.6,68.5-142-8.2-.7-18.3-.7H183L91.5,200.05,0,388.85l17.9.3c9.9.1,18.3-.1,18.8-.6s7.1-13.6,14.7-29.3l13.8-28.4,172.7-.3c106.1-.1,172.6-.6,172.6-1.1,0-1.1-161.8-328.1-163-329.4C247.1-.45,245.2,2.55,243.3,6.55Zm59.6,180.2c29.7,59.7,53.7,108.8,53.4,109.1s-47.3.4-104.5.3l-104-.3,33.9-74c62.4-136.5,66-144.5,66.7-144.1C248.7,78,273.3,127.05,302.9,186.75Z"/><path class="cls-1" d="M224.3,208.55c-14.2,30.9-25.6,56.3-25.4,56.5s24.4.2,53.8.1l53.5-.3-27.8-56.3c-15.2-30.9-27.9-56.2-28.1-56.2S238.4,177.65,224.3,208.55Z"/><path class="cls-1" d="M290.3,12.25l-10.8.6,91.2,188.2L462,389.35h37.4l-13.3-27.3c-7.2-14.9-48.5-100-91.7-188.9L316,11.45l-7.5.1C304.4,11.65,296.2,12,290.3,12.25Z"/><path class="cls-1" d="M88.2,358.05c-.4.3-.7,8-.7,17v16.3h328v-34H252.2C162.3,357.35,88.5,357.65,88.2,358.05Z"/></g></g></svg>